<svg xmlns="http://www.w3.org/2000/svg" xmlns:xlink="http://www.w3.org/1999/xlink"
	viewBox="0 0 250 137.9">
	<style type="text/css">
		.st0{fill:#1A459D;}
		.st1{fill:#067398;}
		.st2{fill:#41AF49;}
		.st3{fill:#019949;}
</style>
	<g>
		<g>
			<path class="st0"
				d="M158.9,130.7L158.9,130.7c0-3.8,2.9-7,7.1-7c4.1,0,7,3.1,7,6.9v0c0,3.8-2.9,7-7.1,7
			C161.8,137.6,158.9,134.5,158.9,130.7z M170.6,130.7L170.6,130.7c0-2.7-1.9-4.8-4.6-4.8c-2.7,0-4.6,2.1-4.6,4.8v0
			c0,2.6,1.9,4.8,4.6,4.8C168.7,135.4,170.6,133.3,170.6,130.7z" />
			<path class="st0" d="M175.8,123.9h2.2l7.2,9.3v-9.3h2.3v13.5h-2l-7.4-9.6v9.6h-2.3V123.9z" />
			<path class="st0" d="M194.4,126.1h-4.3v-2.2h11v2.2h-4.3v11.3h-2.4V126.1z" />
			<path class="st0"
				d="M206.4,123.8h2.2l5.9,13.6h-2.5l-1.4-3.3h-6.4l-1.4,3.3h-2.4L206.4,123.8z M209.8,132.1l-2.3-5.4l-2.3,5.4
			H209.8z" />
			<path class="st0"
				d="M216.4,123.9h6c1.7,0,3,0.5,3.9,1.3c0.7,0.7,1.1,1.7,1.1,2.9v0c0,2.2-1.3,3.5-3.2,4.1l3.6,5.1h-2.8l-3.3-4.7
			h-3v4.7h-2.4V123.9z M222.3,130.6c1.7,0,2.8-0.9,2.8-2.3v0c0-1.4-1-2.2-2.8-2.2h-3.5v4.5H222.3z" />
			<path class="st0" d="M230.5,123.9h2.4v13.5h-2.4V123.9z" />
			<path class="st0"
				d="M235.9,130.7L235.9,130.7c0-3.8,2.9-7,7.1-7c4.1,0,7,3.1,7,6.9v0c0,3.8-2.9,7-7.1,7
			C238.8,137.6,235.9,134.5,235.9,130.7z M247.5,130.7L247.5,130.7c0-2.7-1.9-4.8-4.6-4.8c-2.7,0-4.6,2.1-4.6,4.8v0
			c0,2.6,1.9,4.8,4.6,4.8C245.6,135.4,247.5,133.3,247.5,130.7z" />
		</g>
		<path class="st0"
			d="M157.8,49.5c-10.2,0-17.6,1.5-20.5,2.9c-0.2,0.1-0.6,0.4-0.6,0.8v70.1c0,0.3,0.3,0.6,0.6,0.6h16.7
		c0.3,0,0.6-0.3,0.6-0.6v-14.9h8.1c15.7,0,23.3-13.9,23.3-29.3C185.9,59.8,176,49.5,157.8,49.5 M159.3,95.3h-4.8V63.2h5.1
		c7.3,0,8.4,8,8.4,16C168,87.1,166.9,95.3,159.3,95.3" />
		<path class="st0"
			d="M245.2,104.7c-3.2-13.3-12.5-43.8-18.2-54.3c-0.1-0.2-0.3-0.3-0.5-0.3H206c-0.2,0-0.4,0.1-0.5,0.3
		c-5.5,10.5-15.1,41.6-18.2,54.3c0,0.1,0,0.1,0,0.1v3.1c0,0.3,0.3,0.6,0.6,0.6h15.6c0.3,0,0.5-0.2,0.6-0.4c0.3-1.3,0.6-2.6,1-4.1
		c0.5-2.1,1-4.9,1.6-7.2h18.1c0.5,2.1,0.9,4.6,1.4,6.5c0.4,1.7,0.7,3.3,1.1,4.8c0.1,0.3,0.3,0.4,0.6,0.4h16.8c0.3,0,0.6-0.3,0.6-0.6
		v-3.1C245.2,104.8,245.2,104.8,245.2,104.7 M209.5,84.4c0.8-3.2,6.2-21,6.2-21h0.6c0,0,5.1,17.8,5.8,21H209.5z" />
		<path class="st0"
			d="M112.3,63.2c5.8,0,10.6,4.3,10.6,4.3c0,0,0.1,0,0.2,0h5.1c0.3,0,0.6-0.3,0.6-0.6V54.1c0-0.2-0.1-0.4-0.4-0.5
		c-3.3-1.9-11.7-4-18.8-4c-18.5,0-29.1,12.9-29.1,29.8c0,16.9,11.2,29.8,29.1,29.8c7.2,0,15.5-2.3,18.8-4c0.2-0.1,0.4-0.3,0.4-0.5
		V91.7c0-0.3-0.3-0.6-0.6-0.6H123c0,0-0.1,0-0.2,0c0,0-4.8,4.3-10.6,4.3c-9.7,0-13.5-8.1-13.5-16.1C98.7,71.2,102.6,63.2,112.3,63.2
		" />
		<g>
			<path class="st0"
				d="M38.6,62.3c-1.9,0-3.4,1.5-3.4,3.4c0,1.9,1.5,3.4,3.4,3.4c1.9,0,3.4-1.5,3.4-3.4C42,63.8,40.5,62.3,38.6,62.3
			z M38.6,70.9c-1.5,0-2.7,1.2-2.7,2.7c0,1.5,1.2,2.7,2.7,2.7c1.5,0,2.7-1.2,2.7-2.7C41.3,72.1,40.1,70.9,38.6,70.9z M47.1,45.4
			c-1.3,0-2.5,0.6-3.3,1.5c-0.4-0.8-1-1.5-1.7-2c0.8-0.8,1.2-1.9,1.2-3.1c0-1.9-1.1-3.5-2.7-4.2c1.3-0.7,2.2-2.1,2.2-3.7
			c0-2.3-1.9-4.2-4.2-4.2c-2.3,0-4.2,1.9-4.2,4.2c0,1.6,0.9,3,2.2,3.7c-1.6,0.8-2.7,2.4-2.7,4.2c0,1.2,0.5,2.3,1.2,3.1
			c-0.7,0.5-1.3,1.2-1.7,2c-0.8-0.9-2-1.5-3.3-1.5c-2.4,0-4.4,2-4.4,4.4c0,2.4,2,4.4,4.4,4.4c1.4,0,2.6-0.6,3.4-1.6
			c0.4,0.7,1,1.4,1.7,1.9c-0.8,0.8-1.2,1.9-1.2,3.1c0,2.6,2.1,4.6,4.6,4.6c2.6,0,4.6-2.1,4.6-4.6c0-1.2-0.5-2.3-1.2-3.1
			c0.7-0.5,1.3-1.1,1.7-1.9c0.8,1,2,1.6,3.4,1.6c2.4,0,4.4-2,4.4-4.4C51.5,47.4,49.5,45.4,47.1,45.4z M38.6,79.6
			c-1,0-1.9,0.9-1.9,1.9c0,1,0.9,1.9,1.9,1.9c1,0,1.9-0.9,1.9-1.9C40.5,80.4,39.6,79.6,38.6,79.6z M38.6,88c-0.8,0-1.4,0.6-1.4,1.4
			c0,0.8,0.6,1.4,1.4,1.4c0.8,0,1.4-0.6,1.4-1.4C40,88.6,39.4,88,38.6,88z M55.5,46.2c-2.2,0-4,1.8-4,4c0,2.2,1.8,4,4,4
			c2.2,0,4-1.8,4-4C59.5,48,57.7,46.2,55.5,46.2z M21.7,46.2c-2.2,0-4,1.8-4,4c0,2.2,1.8,4,4,4c2.2,0,4-1.8,4-4
			C25.7,48,23.9,46.2,21.7,46.2z" />
			<path class="st0"
				d="M38.6,29.6c2,0,3.7-1.6,3.7-3.7s-1.6-3.7-3.7-3.7c-2,0-3.7,1.6-3.7,3.7S36.6,29.6,38.6,29.6z" />
			<path class="st0"
				d="M63.9,47.5c-1.9,0-3.4,1.5-3.4,3.3c0,1.9,1.5,3.3,3.4,3.3c1.9,0,3.4-1.5,3.4-3.3C67.3,49,65.8,47.5,63.9,47.5
			z" />
			<path class="st0"
				d="M16.6,50.8c0-1.8-1.5-3.3-3.4-3.3c-1.8,0-3.4,1.5-3.4,3.3c0,1.9,1.5,3.3,3.4,3.3
			C15.1,54.1,16.6,52.7,16.6,50.8z" />
		</g>
		<g>
			<path class="st1"
				d="M47.6,30.4c-2,0-3.6,1.6-3.6,3.6c0,2,1.6,3.6,3.6,3.6c2,0,3.6-1.6,3.6-3.6C51.2,32,49.6,30.4,47.6,30.4z" />
			<path class="st1"
				d="M47.3,38c-2.2,0-3.9,1.8-3.9,3.9c0,2.2,1.8,3.9,3.9,3.9c2.2,0,3.9-1.7,3.9-3.9C51.2,39.7,49.5,38,47.3,38z" />
			<path class="st1"
				d="M46.9,54.1c-2,0-3.7,1.7-3.7,3.7c0,2,1.7,3.7,3.7,3.7c2,0,3.7-1.7,3.7-3.7C50.6,55.7,48.9,54.1,46.9,54.1z" />
			<path class="st1"
				d="M46.6,61.8c-2.2,0-4,1.8-4,4c0,2.2,1.8,3.9,4,3.9c2.2,0,4-1.8,4-3.9C50.6,63.6,48.8,61.8,46.6,61.8z" />
			<path class="st1"
				d="M56,38.6c-2.1,0-3.7,1.7-3.7,3.7c0,2.1,1.7,3.7,3.7,3.7c2.1,0,3.7-1.7,3.7-3.7C59.7,40.2,58,38.6,56,38.6z" />
			<path class="st1"
				d="M29.6,30.4c-2,0-3.6,1.6-3.6,3.6c0,2,1.6,3.6,3.6,3.6s3.6-1.6,3.6-3.6C33.2,32,31.6,30.4,29.6,30.4z" />
			<path class="st1"
				d="M29.9,38c-2.2,0-3.9,1.8-3.9,3.9c0,2.2,1.8,3.9,3.9,3.9c2.2,0,3.9-1.7,3.9-3.9C33.8,39.7,32,38,29.9,38z" />
			<path class="st1"
				d="M30.3,54.1c-2,0-3.7,1.7-3.7,3.7c0,2,1.7,3.7,3.7,3.7s3.7-1.7,3.7-3.7C34,55.7,32.4,54.1,30.3,54.1z" />
			<path class="st1"
				d="M30.6,61.8c-2.2,0-4,1.8-4,4c0,2.2,1.8,3.9,4,3.9c2.2,0,4-1.8,4-3.9C34.5,63.6,32.7,61.8,30.6,61.8z" />
			<path class="st1"
				d="M21.2,38.6c-2.1,0-3.7,1.7-3.7,3.7c0,2.1,1.7,3.7,3.7,3.7c2.1,0,3.7-1.7,3.7-3.7
			C24.9,40.2,23.3,38.6,21.2,38.6z" />
			<path class="st1"
				d="M29.4,29.6c1.9,0,3.5-1.6,3.5-3.5c0-1.9-1.6-3.5-3.5-3.5c-1.9,0-3.5,1.6-3.5,3.5C25.9,28,27.5,29.6,29.4,29.6
			z" />
			<path class="st1"
				d="M18.8,58.1c0,1.8,1.5,3.3,3.3,3.3s3.3-1.5,3.3-3.3c0-1.8-1.5-3.3-3.3-3.3S18.8,56.3,18.8,58.1z" />
			<path class="st1"
				d="M47.8,29.6c1.9,0,3.5-1.6,3.5-3.5c0-1.9-1.6-3.5-3.5-3.5c-1.9,0-3.5,1.6-3.5,3.5C44.3,28,45.9,29.6,47.8,29.6
			z" />
			<path class="st1"
				d="M38.6,21.2c1.8,0,3.3-1.5,3.3-3.3c0-1.8-1.5-3.3-3.3-3.3c-1.8,0-3.3,1.5-3.3,3.3
			C35.3,19.8,36.8,21.2,38.6,21.2z" />
			<path class="st1"
				d="M55,61.5c1.8,0,3.3-1.5,3.3-3.3c0-1.8-1.5-3.3-3.3-3.3c-1.8,0-3.3,1.5-3.3,3.3C51.7,60,53.2,61.5,55,61.5z" />
		</g>
		<g>
			<path class="st2"
				d="M23.1,71.8c-1.2,0-2.3,1-2.3,2.2c0,1.2,1,2.2,2.3,2.2c1.2,0,2.2-1,2.2-2.2C25.3,72.8,24.3,71.8,23.1,71.8z" />
			<path class="st2"
				d="M5.3,35.9c0-1.3-1-2.3-2.3-2.3c-1.3,0-2.3,1-2.3,2.3c0,1.3,1,2.3,2.3,2.3C4.3,38.2,5.3,37.2,5.3,35.9z" />
			<path class="st2"
				d="M11.2,29.4c1.2,0,2.2-1,2.2-2.2c0-1.2-1-2.2-2.2-2.2c-1.2,0-2.2,1-2.2,2.2C8.9,28.4,9.9,29.4,11.2,29.4z" />
			<path class="st2"
				d="M2.1,30.1c1.1,0,2.1-0.9,2.1-2.1c0-1.1-0.9-2.1-2.1-2.1C0.9,26,0,26.9,0,28.1C0,29.2,0.9,30.1,2.1,30.1z" />
			<path class="st2"
				d="M48,20.9c1.5,0,2.8-1.2,2.8-2.8c0-1.5-1.2-2.8-2.8-2.8c-1.5,0-2.8,1.2-2.8,2.8C45.2,19.6,46.5,20.9,48,20.9z"
			/>
			<path class="st2"
				d="M29.2,20.9c1.5,0,2.8-1.2,2.8-2.8c0-1.5-1.2-2.8-2.8-2.8c-1.5,0-2.8,1.2-2.8,2.8
			C26.4,19.6,27.6,20.9,29.2,20.9z" />
			<path class="st2"
				d="M38.6,4.3c1.2,0,2.1-1,2.1-2.1c0-1.2-1-2.1-2.1-2.1c-1.2,0-2.1,1-2.1,2.1C36.5,3.3,37.4,4.3,38.6,4.3z" />
			<path class="st2"
				d="M48.3,12.2c1.1,0,2-0.9,2-2c0-1.1-0.9-2-2-2c-1.1,0-2,0.9-2,2C46.2,11.3,47.1,12.2,48.3,12.2z" />
			<path class="st2"
				d="M28.9,12.2c1.1,0,2-0.9,2-2c0-1.1-0.9-2-2-2c-1.1,0-2,0.9-2,2C26.9,11.3,27.8,12.2,28.9,12.2z" />
			<path class="st2"
				d="M75.1,30.1c1.1,0,2.1-0.9,2.1-2.1c0-1.1-0.9-2.1-2.1-2.1c-1.1,0-2.1,0.9-2.1,2.1C73.1,29.2,74,30.1,75.1,30.1
			z" />
			<path class="st2"
				d="M61.8,72.9c-0.9,0-1.6,0.7-1.6,1.6c0,0.9,0.7,1.6,1.6,1.6c0.9,0,1.6-0.7,1.6-1.6
			C63.5,73.7,62.7,72.9,61.8,72.9z" />
			<path class="st2"
				d="M51.9,74c0,1.2,1,2.2,2.3,2.2c1.2,0,2.3-1,2.3-2.2c0-1.2-1-2.2-2.3-2.2C52.9,71.8,51.9,72.8,51.9,74z" />
			<path class="st2"
				d="M74.2,33.6c-1.3,0-2.3,1-2.3,2.3c0,1.3,1,2.3,2.3,2.3c1.3,0,2.3-1,2.3-2.3C76.5,34.7,75.5,33.6,74.2,33.6z" />
			<path class="st2"
				d="M65.3,31.9c-1.7,0-3.1,1.4-3.1,3.1c0,1.7,1.4,3.1,3.1,3.1c1.7,0,3.1-1.4,3.1-3.1
			C68.4,33.3,67.1,31.9,65.3,31.9z" />
			<path class="st2"
				d="M15.4,72.9c-0.9,0-1.6,0.7-1.6,1.6c0,0.9,0.7,1.6,1.6,1.6c0.9,0,1.6-0.7,1.6-1.6C17,73.7,16.3,72.9,15.4,72.9
			z" />
			<path class="st2"
				d="M66,29.4c1.2,0,2.2-1,2.2-2.2c0-1.2-1-2.2-2.2-2.2c-1.2,0-2.2,1-2.2,2.2C63.8,28.4,64.8,29.4,66,29.4z" />
			<path class="st2"
				d="M11.9,38.1c1.7,0,3.1-1.4,3.1-3.1c0-1.7-1.4-3.1-3.1-3.1c-1.7,0-3.1,1.4-3.1,3.1
			C8.7,36.7,10.1,38.1,11.9,38.1z" />
		</g>
		<g>
			<path class="st3"
				d="M22.6,63.2c-1.6,0-2.9,1.3-2.9,2.9c0,1.6,1.3,2.9,2.9,2.9c1.6,0,2.9-1.3,2.9-2.9
			C25.5,64.5,24.2,63.2,22.6,63.2z" />
			<path class="st3"
				d="M20.7,37.3c1.6,0,2.9-1.3,2.9-2.9c0-1.6-1.3-2.9-2.9-2.9c-1.6,0-2.9,1.3-2.9,2.9C17.8,36,19.1,37.3,20.7,37.3
			z" />
			<path class="st3"
				d="M4.9,49.7c-1.1,0-2,0.9-2,2c0,1.1,0.9,2,2,2c1.1,0,2-0.9,2-2C6.8,50.6,5.9,49.7,4.9,49.7z" />
			<path class="st3"
				d="M38.6,12.8c1.5,0,2.7-1.2,2.7-2.7c0-1.5-1.2-2.7-2.7-2.7c-1.5,0-2.7,1.2-2.7,2.7
			C35.9,11.5,37.1,12.8,38.6,12.8z" />
			<path class="st3"
				d="M63.2,56.2c-1.4,0-2.5,1.1-2.5,2.5c0,1.4,1.1,2.5,2.5,2.5c1.4,0,2.5-1.1,2.5-2.5
			C65.8,57.3,64.6,56.2,63.2,56.2z" />
			<path class="st3"
				d="M64.6,39.6c-1.8,0-3.3,1.5-3.3,3.3c0,1.8,1.5,3.3,3.3,3.3c1.8,0,3.3-1.5,3.3-3.3C68,41.1,66.5,39.6,64.6,39.6
			z" />
			<path class="st3"
				d="M72.3,49.7c-1.1,0-2,0.9-2,2c0,1.1,0.9,2,2,2c1.1,0,2-0.9,2-2C74.3,50.6,73.4,49.7,72.3,49.7z" />
			<path class="st3"
				d="M56.4,37.3c1.6,0,2.9-1.3,2.9-2.9c0-1.6-1.3-2.9-2.9-2.9c-1.6,0-2.9,1.3-2.9,2.9C53.5,36,54.8,37.3,56.4,37.3
			z" />
			<path class="st3"
				d="M16.5,58.7c0-1.4-1.1-2.5-2.5-2.5c-1.4,0-2.5,1.1-2.5,2.5c0,1.4,1.1,2.5,2.5,2.5
			C15.4,61.3,16.5,60.1,16.5,58.7z" />
			<path class="st3"
				d="M12.6,46.3c1.8,0,3.3-1.5,3.3-3.3c0-1.8-1.5-3.3-3.3-3.3c-1.8,0-3.3,1.5-3.3,3.3
			C9.2,44.8,10.7,46.3,12.6,46.3z" />
			<path class="st3"
				d="M54.6,69.1c1.6,0,2.9-1.3,2.9-2.9c0-1.6-1.3-2.9-2.9-2.9c-1.6,0-2.9,1.3-2.9,2.9C51.6,67.8,53,69.1,54.6,69.1
			z" />
		</g>
	</g>
</svg>